<mxfile host="app.diagrams.net" modified="2023-09-08T00:33:23.120Z" agent="Mozilla/5.0 (Windows NT 10.0; Win64; x64) AppleWebKit/537.36 (KHTML, like Gecko) Chrome/116.0.0.0 Safari/537.36 Edg/116.0.1938.69" etag="7UwvwAdWCCO1A6lyDmwd" version="21.7.2" type="github">
  <diagram name="페이지-1" id="MUAshJFVX9nZdrtrtDrT">
    <mxGraphModel dx="915" dy="1169" grid="0" gridSize="10" guides="1" tooltips="1" connect="1" arrows="1" fold="1" page="0" pageScale="1" pageWidth="827" pageHeight="1169" math="0" shadow="0">
      <root>
        <mxCell id="0" />
        <mxCell id="1" parent="0" />
        <mxCell id="fAXV6IjAMdIhhjRVyN-M-1" value="&lt;b&gt;Module - Security&lt;/b&gt;" style="shape=umlFrame;whiteSpace=wrap;html=1;pointerEvents=0;hachureGap=4;fontFamily=Architects Daughter;fontSource=https%3A%2F%2Ffonts.googleapis.com%2Fcss%3Ffamily%3DArchitects%2BDaughter;fontSize=20;width=286;height=39;labelBackgroundColor=none;rounded=0;" vertex="1" parent="1">
          <mxGeometry x="1517" y="27" width="777" height="1176" as="geometry" />
        </mxCell>
        <mxCell id="fAXV6IjAMdIhhjRVyN-M-2" style="edgeStyle=none;shape=connector;rounded=0;hachureGap=4;orthogonalLoop=1;jettySize=auto;html=1;dashed=1;labelBackgroundColor=none;strokeColor=default;fontFamily=Architects Daughter;fontSource=https%3A%2F%2Ffonts.googleapis.com%2Fcss%3Ffamily%3DArchitects%2BDaughter;fontSize=16;fontColor=default;endArrow=open;endFill=0;endSize=15;" edge="1" parent="1" source="fAXV6IjAMdIhhjRVyN-M-8" target="fAXV6IjAMdIhhjRVyN-M-4">
          <mxGeometry relative="1" as="geometry" />
        </mxCell>
        <mxCell id="fAXV6IjAMdIhhjRVyN-M-3" style="edgeStyle=none;shape=connector;rounded=0;hachureGap=4;orthogonalLoop=1;jettySize=auto;html=1;dashed=1;labelBackgroundColor=none;strokeColor=default;fontFamily=Architects Daughter;fontSource=https%3A%2F%2Ffonts.googleapis.com%2Fcss%3Ffamily%3DArchitects%2BDaughter;fontSize=16;fontColor=default;endArrow=open;endFill=0;endSize=15;" edge="1" parent="1" source="fAXV6IjAMdIhhjRVyN-M-4" target="fAXV6IjAMdIhhjRVyN-M-12">
          <mxGeometry relative="1" as="geometry" />
        </mxCell>
        <mxCell id="fAXV6IjAMdIhhjRVyN-M-4" value="&lt;p style=&quot;margin:0px;margin-top:4px;text-align:center;&quot;&gt;&lt;i&gt;&amp;lt;&amp;lt;Interface&amp;gt;&amp;gt;&lt;/i&gt;&lt;br&gt;&lt;b style=&quot;background-color: initial;&quot;&gt;service::SecurityService&lt;/b&gt;&lt;/p&gt;&lt;p style=&quot;margin:0px;margin-top:4px;text-align:center;&quot;&gt;&lt;/p&gt;&lt;hr size=&quot;1&quot;&gt;&lt;p style=&quot;margin:0px;margin-left:4px;&quot;&gt;+&lt;span style=&quot;border-color: var(--border-color); background-color: initial;&quot;&gt;&amp;nbsp;addSecurityResult(Security): void&lt;/span&gt;&lt;/p&gt;&lt;p style=&quot;margin:0px;margin-left:4px;&quot;&gt;&lt;span style=&quot;border-color: var(--border-color); background-color: initial;&quot;&gt;+ editSecurityResult(Security): void&lt;/span&gt;&lt;/p&gt;&lt;p style=&quot;margin:0px;margin-left:4px;&quot;&gt;&lt;span style=&quot;background-color: initial;&quot;&gt;+ searchSecurityResult(seatNo): Security&lt;/span&gt;&lt;/p&gt;&lt;p style=&quot;margin:0px;margin-left:4px;&quot;&gt;+ searchSecurityResult(stationNo): Security&lt;span style=&quot;background-color: initial;&quot;&gt;&lt;br&gt;&lt;/span&gt;&lt;/p&gt;&lt;p style=&quot;margin:0px;margin-left:4px;&quot;&gt;+ searchSecurityResult(SecurityNo): Security&lt;/p&gt;&lt;p style=&quot;margin:0px;margin-left:4px;&quot;&gt;+ changeStationStatus(stationNo): void&lt;/p&gt;&lt;p style=&quot;margin:0px;margin-left:4px;&quot;&gt;+ changeSeatStatus(seatNo): void&lt;br&gt;&lt;/p&gt;" style="verticalAlign=top;align=left;overflow=fill;fontSize=12;fontFamily=Helvetica;html=1;whiteSpace=wrap;" vertex="1" parent="1">
          <mxGeometry x="1915" y="309" width="331" height="167" as="geometry" />
        </mxCell>
        <mxCell id="fAXV6IjAMdIhhjRVyN-M-5" style="edgeStyle=none;shape=connector;rounded=0;hachureGap=4;orthogonalLoop=1;jettySize=auto;html=1;dashed=1;labelBackgroundColor=none;strokeColor=default;fontFamily=Architects Daughter;fontSource=https%3A%2F%2Ffonts.googleapis.com%2Fcss%3Ffamily%3DArchitects%2BDaughter;fontSize=16;fontColor=default;endArrow=open;endFill=0;endSize=15;exitX=0.5;exitY=0;exitDx=0;exitDy=0;" edge="1" parent="1" source="fAXV6IjAMdIhhjRVyN-M-6" target="fAXV6IjAMdIhhjRVyN-M-12">
          <mxGeometry relative="1" as="geometry" />
        </mxCell>
        <mxCell id="fAXV6IjAMdIhhjRVyN-M-6" value="&lt;p style=&quot;margin:0px;margin-top:4px;text-align:center;&quot;&gt;&lt;i&gt;&amp;lt;&amp;lt;Interface&amp;gt;&amp;gt;&lt;/i&gt;&lt;br&gt;&lt;b style=&quot;background-color: initial;&quot;&gt;repository::SecurityDAO&lt;/b&gt;&lt;/p&gt;&lt;p style=&quot;margin:0px;margin-top:4px;text-align:center;&quot;&gt;&lt;/p&gt;&lt;hr size=&quot;1&quot;&gt;&lt;p style=&quot;margin:0px;margin-left:4px;&quot;&gt;+ selectSecurity(SecurityNo: String): Security&lt;/p&gt;&lt;p style=&quot;margin:0px;margin-left:4px;&quot;&gt;+ selectSecurity(seatNo: String): Security&lt;br&gt;&lt;/p&gt;&lt;p style=&quot;margin:0px;margin-left:4px;&quot;&gt;+ selectSecurity(stationNo: String): Security&lt;br&gt;&lt;/p&gt;&lt;p style=&quot;margin:0px;margin-left:4px;&quot;&gt;+ insertSecurity(Security): void&lt;/p&gt;&lt;p style=&quot;margin:0px;margin-left:4px;&quot;&gt;+ updateSecurity(Security): void&lt;/p&gt;" style="verticalAlign=top;align=left;overflow=fill;fontSize=12;fontFamily=Helvetica;html=1;whiteSpace=wrap;" vertex="1" parent="1">
          <mxGeometry x="1547" y="339" width="331" height="124" as="geometry" />
        </mxCell>
        <mxCell id="fAXV6IjAMdIhhjRVyN-M-7" style="edgeStyle=none;shape=connector;rounded=0;hachureGap=4;orthogonalLoop=1;jettySize=auto;html=1;dashed=1;labelBackgroundColor=none;strokeColor=default;fontFamily=Architects Daughter;fontSource=https%3A%2F%2Ffonts.googleapis.com%2Fcss%3Ffamily%3DArchitects%2BDaughter;fontSize=16;fontColor=default;endArrow=open;endFill=0;endSize=15;" edge="1" parent="1" source="fAXV6IjAMdIhhjRVyN-M-8" target="fAXV6IjAMdIhhjRVyN-M-12">
          <mxGeometry relative="1" as="geometry" />
        </mxCell>
        <mxCell id="fAXV6IjAMdIhhjRVyN-M-8" value="&lt;p style=&quot;margin:0px;margin-top:4px;text-align:center;&quot;&gt;&lt;b style=&quot;background-color: initial;&quot;&gt;Controller::SecurityController&lt;/b&gt;&lt;/p&gt;&lt;p style=&quot;margin:0px;margin-top:4px;text-align:center;&quot;&gt;&lt;/p&gt;&lt;hr size=&quot;1&quot;&gt;&lt;p style=&quot;margin:0px;margin-left:4px;&quot;&gt;+ checkAccessToken(userId): boolean&lt;/p&gt;&lt;p style=&quot;margin:0px;margin-left:4px;&quot;&gt;+ addSecurityResult(Security): void&lt;/p&gt;&lt;p style=&quot;margin:0px;margin-left:4px;&quot;&gt;+ editSecurityResult(Security): void&lt;/p&gt;&lt;p style=&quot;margin:0px;margin-left:4px;&quot;&gt;+ searchSecurityResult(SecurityNo): Security&lt;br&gt;&lt;/p&gt;&lt;p style=&quot;margin:0px;margin-left:4px;&quot;&gt;+ searchSecurityResult(stationNo): Security&lt;br&gt;&lt;/p&gt;&lt;p style=&quot;margin:0px;margin-left:4px;&quot;&gt;+ searchSecurityResult(seatNo): Security&lt;/p&gt;" style="verticalAlign=top;align=left;overflow=fill;fontSize=12;fontFamily=Helvetica;html=1;whiteSpace=wrap;" vertex="1" parent="1">
          <mxGeometry x="1932" y="109" width="286" height="142" as="geometry" />
        </mxCell>
        <mxCell id="fAXV6IjAMdIhhjRVyN-M-9" style="edgeStyle=none;shape=connector;rounded=0;hachureGap=4;orthogonalLoop=1;jettySize=auto;html=1;dashed=1;labelBackgroundColor=none;strokeColor=default;fontFamily=Architects Daughter;fontSource=https%3A%2F%2Ffonts.googleapis.com%2Fcss%3Ffamily%3DArchitects%2BDaughter;fontSize=16;fontColor=default;endArrow=open;endFill=0;endSize=15;" edge="1" parent="1" source="fAXV6IjAMdIhhjRVyN-M-11" target="fAXV6IjAMdIhhjRVyN-M-6">
          <mxGeometry relative="1" as="geometry" />
        </mxCell>
        <mxCell id="fAXV6IjAMdIhhjRVyN-M-10" style="edgeStyle=none;shape=connector;rounded=0;hachureGap=4;orthogonalLoop=1;jettySize=auto;html=1;dashed=1;labelBackgroundColor=none;strokeColor=default;fontFamily=Architects Daughter;fontSource=https%3A%2F%2Ffonts.googleapis.com%2Fcss%3Ffamily%3DArchitects%2BDaughter;fontSize=16;fontColor=default;endArrow=block;endFill=0;endSize=15;" edge="1" parent="1" source="fAXV6IjAMdIhhjRVyN-M-11" target="fAXV6IjAMdIhhjRVyN-M-4">
          <mxGeometry relative="1" as="geometry" />
        </mxCell>
        <mxCell id="fAXV6IjAMdIhhjRVyN-M-11" value="&lt;p style=&quot;margin:0px;margin-top:4px;text-align:center;&quot;&gt;&lt;b style=&quot;background-color: initial;&quot;&gt;service::SecurityServiceImpl&lt;/b&gt;&lt;/p&gt;&lt;p style=&quot;margin:0px;margin-top:4px;text-align:center;&quot;&gt;&lt;/p&gt;&lt;hr size=&quot;1&quot;&gt;&lt;p style=&quot;border-color: var(--border-color); margin: 0px 0px 0px 4px;&quot;&gt;+&lt;span style=&quot;background-color: initial; border-color: var(--border-color);&quot;&gt;&amp;nbsp;addSecurityResult(Security): void&lt;/span&gt;&lt;/p&gt;&lt;p style=&quot;border-color: var(--border-color); margin: 0px 0px 0px 4px;&quot;&gt;&lt;span style=&quot;border-color: var(--border-color); background-color: initial;&quot;&gt;+ editSecurityResult(Security): void&lt;/span&gt;&lt;/p&gt;&lt;p style=&quot;border-color: var(--border-color); margin: 0px 0px 0px 4px;&quot;&gt;&lt;span style=&quot;border-color: var(--border-color); background-color: initial;&quot;&gt;+ searchSecurityResult(seatNo): Security&lt;/span&gt;&lt;/p&gt;&lt;p style=&quot;border-color: var(--border-color); margin: 0px 0px 0px 4px;&quot;&gt;+ searchSecurityResult(stationNo): Security&lt;span style=&quot;border-color: var(--border-color); background-color: initial;&quot;&gt;&lt;br style=&quot;border-color: var(--border-color);&quot;&gt;&lt;/span&gt;&lt;/p&gt;&lt;p style=&quot;border-color: var(--border-color); margin: 0px 0px 0px 4px;&quot;&gt;+ searchSecurityResult(SecurityNo): Security&lt;/p&gt;&lt;p style=&quot;border-color: var(--border-color); margin: 0px 0px 0px 4px;&quot;&gt;+ changeStationStatus(stationNo): void&lt;/p&gt;&lt;p style=&quot;border-color: var(--border-color); margin: 0px 0px 0px 4px;&quot;&gt;+ changeSeatStatus(seatNo): void&lt;/p&gt;" style="verticalAlign=top;align=left;overflow=fill;fontSize=12;fontFamily=Helvetica;html=1;whiteSpace=wrap;" vertex="1" parent="1">
          <mxGeometry x="1924" y="526" width="318" height="154" as="geometry" />
        </mxCell>
        <mxCell id="fAXV6IjAMdIhhjRVyN-M-12" value="&lt;p style=&quot;margin:0px;margin-top:4px;text-align:center;&quot;&gt;&lt;b style=&quot;background-color: initial;&quot;&gt;model::Security&lt;/b&gt;&lt;/p&gt;&lt;p style=&quot;margin:0px;margin-top:4px;text-align:center;&quot;&gt;&lt;/p&gt;&lt;hr size=&quot;1&quot;&gt;&lt;p style=&quot;margin:0px;margin-left:4px;&quot;&gt;- securityNo: String&lt;/p&gt;&lt;p style=&quot;margin:0px;margin-left:4px;&quot;&gt;- securityType: String&lt;/p&gt;&lt;p style=&quot;margin:0px;margin-left:4px;&quot;&gt;&lt;span style=&quot;background-color: initial;&quot;&gt;- stationNo: String&lt;/span&gt;&lt;br&gt;&lt;/p&gt;&lt;p style=&quot;margin:0px;margin-left:4px;&quot;&gt;- seatNo: String&lt;/p&gt;&lt;p style=&quot;margin:0px;margin-left:4px;&quot;&gt;- securityResult: String&lt;/p&gt;&lt;p style=&quot;margin:0px;margin-left:4px;&quot;&gt;- securityResultFile: ArrayList&amp;lt;File&amp;gt;&lt;/p&gt;&lt;p style=&quot;margin:0px;margin-left:4px;&quot;&gt;&lt;span style=&quot;background-color: initial;&quot;&gt;- securityTime: Time&lt;/span&gt;&lt;br&gt;&lt;/p&gt;" style="verticalAlign=top;align=left;overflow=fill;fontSize=12;fontFamily=Helvetica;html=1;whiteSpace=wrap;" vertex="1" parent="1">
          <mxGeometry x="1585" y="112" width="197" height="143" as="geometry" />
        </mxCell>
        <mxCell id="fAXV6IjAMdIhhjRVyN-M-13" style="edgeStyle=none;shape=connector;rounded=0;hachureGap=4;orthogonalLoop=1;jettySize=auto;html=1;dashed=1;labelBackgroundColor=none;strokeColor=default;fontFamily=Architects Daughter;fontSource=https%3A%2F%2Ffonts.googleapis.com%2Fcss%3Ffamily%3DArchitects%2BDaughter;fontSize=16;fontColor=default;endArrow=block;endFill=0;endSize=15;" edge="1" parent="1" source="fAXV6IjAMdIhhjRVyN-M-14" target="fAXV6IjAMdIhhjRVyN-M-6">
          <mxGeometry relative="1" as="geometry" />
        </mxCell>
        <mxCell id="fAXV6IjAMdIhhjRVyN-M-14" value="&lt;p style=&quot;margin:0px;margin-top:4px;text-align:center;&quot;&gt;&lt;b style=&quot;background-color: initial;&quot;&gt;repository::SecurityDAOImpl&lt;/b&gt;&lt;/p&gt;&lt;p style=&quot;margin:0px;margin-top:4px;text-align:center;&quot;&gt;&lt;/p&gt;&lt;hr size=&quot;1&quot;&gt;&lt;p style=&quot;border-color: var(--border-color); margin: 0px 0px 0px 4px;&quot;&gt;+ selectSecurity(SecurityNo: String): Security&lt;/p&gt;&lt;p style=&quot;border-color: var(--border-color); margin: 0px 0px 0px 4px;&quot;&gt;+ selectSecurity(seatNo: String): Security&lt;br style=&quot;border-color: var(--border-color);&quot;&gt;&lt;/p&gt;&lt;p style=&quot;border-color: var(--border-color); margin: 0px 0px 0px 4px;&quot;&gt;+ selectSecurity(stationNo: String): Security&lt;br style=&quot;border-color: var(--border-color);&quot;&gt;&lt;/p&gt;&lt;p style=&quot;border-color: var(--border-color); margin: 0px 0px 0px 4px;&quot;&gt;+ insertSecurity(Security): void&lt;/p&gt;&lt;p style=&quot;border-color: var(--border-color); margin: 0px 0px 0px 4px;&quot;&gt;+ updateSecurity(Security): void&lt;/p&gt;" style="verticalAlign=top;align=left;overflow=fill;fontSize=12;fontFamily=Helvetica;html=1;whiteSpace=wrap;" vertex="1" parent="1">
          <mxGeometry x="1541" y="520" width="331" height="111" as="geometry" />
        </mxCell>
        <mxCell id="fAXV6IjAMdIhhjRVyN-M-15" value="&lt;p style=&quot;margin:0px;margin-top:4px;text-align:center;&quot;&gt;&lt;b style=&quot;background-color: initial;&quot;&gt;model::Station&lt;/b&gt;&lt;/p&gt;&lt;p style=&quot;margin:0px;margin-top:4px;text-align:center;&quot;&gt;&lt;/p&gt;&lt;hr size=&quot;1&quot;&gt;&lt;p style=&quot;margin:0px;margin-left:4px;&quot;&gt;- stationNo: String&lt;/p&gt;&lt;p style=&quot;margin:0px;margin-left:4px;&quot;&gt;- stationLocation: HashMap &amp;lt;Double, Double&amp;gt;&lt;/p&gt;&lt;p style=&quot;margin:0px;margin-left:4px;&quot;&gt;- stationStatus: String&lt;/p&gt;&lt;p style=&quot;margin:0px;margin-left:4px;&quot;&gt;&lt;span style=&quot;background-color: initial;&quot;&gt;- seatList: ArrayList&amp;lt;Seat&amp;gt;&lt;/span&gt;&lt;br&gt;&lt;/p&gt;&lt;p style=&quot;margin:0px;margin-left:4px;&quot;&gt;- securityList: ArrayList&amp;lt;Security&amp;gt;&lt;/p&gt;&lt;p style=&quot;margin:0px;margin-left:4px;&quot;&gt;- firmwareInfo: FirmwareInfo&lt;/p&gt;&lt;p style=&quot;margin:0px;margin-left:4px;&quot;&gt;&lt;br&gt;&lt;/p&gt;" style="verticalAlign=top;align=left;overflow=fill;fontSize=12;fontFamily=Helvetica;html=1;whiteSpace=wrap;" vertex="1" parent="1">
          <mxGeometry x="1706" y="1036" width="257" height="143" as="geometry" />
        </mxCell>
        <mxCell id="fAXV6IjAMdIhhjRVyN-M-16" value="&lt;p style=&quot;margin:0px;margin-top:4px;text-align:center;&quot;&gt;&lt;b style=&quot;background-color: initial;&quot;&gt;model::Seat&lt;/b&gt;&lt;/p&gt;&lt;p style=&quot;margin:0px;margin-top:4px;text-align:center;&quot;&gt;&lt;/p&gt;&lt;hr size=&quot;1&quot;&gt;&lt;p style=&quot;margin:0px;margin-left:4px;&quot;&gt;- seatNo: String&lt;/p&gt;&lt;p style=&quot;margin:0px;margin-left:4px;&quot;&gt;- stationNo: String&lt;/p&gt;&lt;p style=&quot;margin:0px;margin-left:4px;&quot;&gt;- status:&lt;span style=&quot;background-color: initial;&quot;&gt;&amp;nbsp;String&lt;/span&gt;&lt;/p&gt;&lt;p style=&quot;margin:0px;margin-left:4px;&quot;&gt;&lt;span style=&quot;background-color: initial;&quot;&gt;- chargStatus: boolean&lt;/span&gt;&lt;/p&gt;&lt;p style=&quot;border-color: var(--border-color); margin: 0px 0px 0px 4px;&quot;&gt;- chargingStartTime: Time&lt;/p&gt;&lt;p style=&quot;border-color: var(--border-color); margin: 0px 0px 0px 4px;&quot;&gt;- parkingStatus: boolean&lt;/p&gt;&lt;p style=&quot;border-color: var(--border-color); margin: 0px 0px 0px 4px;&quot;&gt;- parkingStartTime: Time&lt;/p&gt;&lt;p style=&quot;margin:0px;margin-left:4px;&quot;&gt;&lt;br&gt;&lt;/p&gt;" style="verticalAlign=top;align=left;overflow=fill;fontSize=12;fontFamily=Helvetica;html=1;whiteSpace=wrap;" vertex="1" parent="1">
          <mxGeometry x="2072" y="1044" width="163" height="137" as="geometry" />
        </mxCell>
        <mxCell id="fAXV6IjAMdIhhjRVyN-M-17" style="edgeStyle=none;shape=connector;rounded=0;hachureGap=4;orthogonalLoop=1;jettySize=auto;html=1;dashed=1;labelBackgroundColor=none;strokeColor=default;fontFamily=Architects Daughter;fontSource=https%3A%2F%2Ffonts.googleapis.com%2Fcss%3Ffamily%3DArchitects%2BDaughter;fontSize=16;fontColor=default;endArrow=open;endFill=0;endSize=15;" edge="1" parent="1" source="fAXV6IjAMdIhhjRVyN-M-23" target="fAXV6IjAMdIhhjRVyN-M-15">
          <mxGeometry relative="1" as="geometry">
            <mxPoint x="1920" y="74" as="sourcePoint" />
            <mxPoint x="1790" y="74" as="targetPoint" />
          </mxGeometry>
        </mxCell>
        <mxCell id="fAXV6IjAMdIhhjRVyN-M-18" style="edgeStyle=none;shape=connector;rounded=0;hachureGap=4;orthogonalLoop=1;jettySize=auto;html=1;dashed=1;labelBackgroundColor=none;strokeColor=default;fontFamily=Architects Daughter;fontSource=https%3A%2F%2Ffonts.googleapis.com%2Fcss%3Ffamily%3DArchitects%2BDaughter;fontSize=16;fontColor=default;endArrow=open;endFill=0;endSize=15;" edge="1" parent="1" source="fAXV6IjAMdIhhjRVyN-M-24" target="fAXV6IjAMdIhhjRVyN-M-16">
          <mxGeometry relative="1" as="geometry">
            <mxPoint x="1930" y="84" as="sourcePoint" />
            <mxPoint x="1800" y="84" as="targetPoint" />
          </mxGeometry>
        </mxCell>
        <mxCell id="fAXV6IjAMdIhhjRVyN-M-19" value="" style="edgeStyle=none;shape=connector;rounded=0;hachureGap=4;orthogonalLoop=1;jettySize=auto;html=1;dashed=1;labelBackgroundColor=none;strokeColor=default;fontFamily=Architects Daughter;fontSource=https%3A%2F%2Ffonts.googleapis.com%2Fcss%3Ffamily%3DArchitects%2BDaughter;fontSize=16;fontColor=default;endArrow=open;endFill=0;endSize=15;" edge="1" parent="1" source="fAXV6IjAMdIhhjRVyN-M-11" target="fAXV6IjAMdIhhjRVyN-M-20">
          <mxGeometry relative="1" as="geometry">
            <mxPoint x="2145" y="484" as="sourcePoint" />
            <mxPoint x="2501" y="969" as="targetPoint" />
          </mxGeometry>
        </mxCell>
        <mxCell id="fAXV6IjAMdIhhjRVyN-M-20" value="&lt;p style=&quot;margin:0px;margin-top:4px;text-align:center;&quot;&gt;&lt;i&gt;&amp;lt;&amp;lt;Interface&amp;gt;&amp;gt;&lt;/i&gt;&lt;br&gt;&lt;b style=&quot;background-color: initial;&quot;&gt;repository::SeatDAO&lt;/b&gt;&lt;/p&gt;&lt;p style=&quot;margin:0px;margin-top:4px;text-align:center;&quot;&gt;&lt;/p&gt;&lt;hr size=&quot;1&quot;&gt;&lt;p style=&quot;margin:0px;margin-left:4px;&quot;&gt;+ selectSeat(seatNo): Seat&lt;/p&gt;&lt;p style=&quot;margin:0px;margin-left:4px;&quot;&gt;&lt;span style=&quot;background-color: initial;&quot;&gt;+ updateSeat(Seat): void&lt;/span&gt;&lt;br&gt;&lt;/p&gt;" style="verticalAlign=top;align=left;overflow=fill;fontSize=12;fontFamily=Helvetica;html=1;whiteSpace=wrap;" vertex="1" parent="1">
          <mxGeometry x="2058" y="723" width="185" height="102" as="geometry" />
        </mxCell>
        <mxCell id="fAXV6IjAMdIhhjRVyN-M-21" value="&lt;p style=&quot;margin:0px;margin-top:4px;text-align:center;&quot;&gt;&lt;i&gt;&amp;lt;&amp;lt;Interface&amp;gt;&amp;gt;&lt;/i&gt;&lt;br&gt;&lt;b style=&quot;background-color: initial;&quot;&gt;repository::StationDAO&lt;/b&gt;&lt;/p&gt;&lt;p style=&quot;margin:0px;margin-top:4px;text-align:center;&quot;&gt;&lt;/p&gt;&lt;hr size=&quot;1&quot;&gt;&lt;p style=&quot;margin:0px;margin-left:4px;&quot;&gt;+ selectStation(stationNo): Station&lt;/p&gt;&lt;p style=&quot;margin:0px;margin-left:4px;&quot;&gt;+ updateStation(Station): void&lt;/p&gt;" style="verticalAlign=top;align=left;overflow=fill;fontSize=12;fontFamily=Helvetica;html=1;whiteSpace=wrap;" vertex="1" parent="1">
          <mxGeometry x="1686" y="723" width="331" height="102" as="geometry" />
        </mxCell>
        <mxCell id="fAXV6IjAMdIhhjRVyN-M-22" value="" style="edgeStyle=none;shape=connector;rounded=0;hachureGap=4;orthogonalLoop=1;jettySize=auto;html=1;dashed=1;labelBackgroundColor=none;strokeColor=default;fontFamily=Architects Daughter;fontSource=https%3A%2F%2Ffonts.googleapis.com%2Fcss%3Ffamily%3DArchitects%2BDaughter;fontSize=16;fontColor=default;endArrow=open;endFill=0;endSize=15;" edge="1" parent="1" source="fAXV6IjAMdIhhjRVyN-M-11" target="fAXV6IjAMdIhhjRVyN-M-21">
          <mxGeometry relative="1" as="geometry">
            <mxPoint x="2017" y="645" as="sourcePoint" />
            <mxPoint x="2121" y="742" as="targetPoint" />
          </mxGeometry>
        </mxCell>
        <mxCell id="fAXV6IjAMdIhhjRVyN-M-23" value="&lt;p style=&quot;margin:0px;margin-top:4px;text-align:center;&quot;&gt;&lt;b style=&quot;background-color: initial;&quot;&gt;repository::StationDAOImpl&lt;/b&gt;&lt;/p&gt;&lt;p style=&quot;margin:0px;margin-top:4px;text-align:center;&quot;&gt;&lt;/p&gt;&lt;hr size=&quot;1&quot;&gt;&lt;p style=&quot;margin:0px;margin-left:4px;&quot;&gt;&lt;span style=&quot;background-color: initial;&quot;&gt;+ selectStation(stationNo): Station&lt;/span&gt;&lt;br&gt;&lt;/p&gt;&lt;p style=&quot;border-color: var(--border-color); margin: 0px 0px 0px 4px;&quot;&gt;+ updateStation(Station): void&lt;/p&gt;" style="verticalAlign=top;align=left;overflow=fill;fontSize=12;fontFamily=Helvetica;html=1;whiteSpace=wrap;" vertex="1" parent="1">
          <mxGeometry x="1686" y="883" width="331" height="102" as="geometry" />
        </mxCell>
        <mxCell id="fAXV6IjAMdIhhjRVyN-M-24" value="&lt;p style=&quot;margin:0px;margin-top:4px;text-align:center;&quot;&gt;&lt;b style=&quot;background-color: initial;&quot;&gt;repository::SeatDAOImpl&lt;/b&gt;&lt;/p&gt;&lt;p style=&quot;margin:0px;margin-top:4px;text-align:center;&quot;&gt;&lt;/p&gt;&lt;hr size=&quot;1&quot;&gt;&lt;p style=&quot;margin:0px;margin-left:4px;&quot;&gt;+ selectSeat(seatNo): Seat&lt;/p&gt;&lt;p style=&quot;margin:0px;margin-left:4px;&quot;&gt;&lt;span style=&quot;background-color: initial;&quot;&gt;+ updateSeat(Seat): void&lt;/span&gt;&lt;br&gt;&lt;/p&gt;" style="verticalAlign=top;align=left;overflow=fill;fontSize=12;fontFamily=Helvetica;html=1;whiteSpace=wrap;" vertex="1" parent="1">
          <mxGeometry x="2061" y="883" width="185" height="102" as="geometry" />
        </mxCell>
        <mxCell id="fAXV6IjAMdIhhjRVyN-M-25" style="edgeStyle=none;shape=connector;rounded=0;hachureGap=4;orthogonalLoop=1;jettySize=auto;html=1;dashed=1;labelBackgroundColor=none;strokeColor=default;fontFamily=Architects Daughter;fontSource=https%3A%2F%2Ffonts.googleapis.com%2Fcss%3Ffamily%3DArchitects%2BDaughter;fontSize=16;fontColor=default;endArrow=block;endFill=0;endSize=15;" edge="1" parent="1" source="fAXV6IjAMdIhhjRVyN-M-23" target="fAXV6IjAMdIhhjRVyN-M-21">
          <mxGeometry relative="1" as="geometry">
            <mxPoint x="1973" y="543" as="sourcePoint" />
            <mxPoint x="1973" y="501" as="targetPoint" />
          </mxGeometry>
        </mxCell>
        <mxCell id="fAXV6IjAMdIhhjRVyN-M-26" style="edgeStyle=none;shape=connector;rounded=0;hachureGap=4;orthogonalLoop=1;jettySize=auto;html=1;dashed=1;labelBackgroundColor=none;strokeColor=default;fontFamily=Architects Daughter;fontSource=https%3A%2F%2Ffonts.googleapis.com%2Fcss%3Ffamily%3DArchitects%2BDaughter;fontSize=16;fontColor=default;endArrow=block;endFill=0;endSize=15;" edge="1" parent="1" source="fAXV6IjAMdIhhjRVyN-M-24" target="fAXV6IjAMdIhhjRVyN-M-20">
          <mxGeometry relative="1" as="geometry">
            <mxPoint x="1862" y="893" as="sourcePoint" />
            <mxPoint x="1862" y="835" as="targetPoint" />
          </mxGeometry>
        </mxCell>
      </root>
    </mxGraphModel>
  </diagram>
</mxfile>
